<?xml version="1.0" standalone="no"?>
<!DOCTYPE svg PUBLIC "-//W3C//DTD SVG 20010904//EN"
 "http://www.w3.org/TR/2001/REC-SVG-20010904/DTD/svg10.dtd">
<svg version="1.0" xmlns="http://www.w3.org/2000/svg"
 width="276.000000pt" height="195.000000pt" viewBox="0 0 276.000000 195.000000"
 preserveAspectRatio="xMidYMid meet">
<metadata>
Created by potrace 1.16, written by Peter Selinger 2001-2019
</metadata>
<g transform="translate(0.000000,195.000000) scale(0.100000,-0.100000)"
fill="#000000" stroke="none">
<path d="M855 1786 c-38 -7 -86 -20 -105 -29 -52 -22 -97 -75 -109 -127 -14
-60 -14 -700 0 -760 21 -93 105 -142 277 -161 94 -10 292 -4 292 10 0 3 -16
16 -35 29 -20 12 -40 33 -46 45 -10 21 -16 23 -98 22 -59 0 -97 5 -115 15 -55
29 -56 39 -56 420 0 431 -3 421 125 435 79 9 175 -8 198 -36 15 -18 17 -44 17
-190 l0 -169 115 0 115 0 0 175 c0 196 -4 210 -66 259 -61 48 -141 67 -299 72
-92 2 -164 -1 -210 -10z"/>
<path d="M90 460 l0 -150 140 0 c105 0 140 3 140 13 0 9 -30 12 -117 12 l-118
0 -3 138 c-2 129 -4 137 -22 137 -19 0 -20 -7 -20 -150z"/>
<path d="M640 460 c0 -143 1 -150 20 -150 19 0 20 7 20 130 0 72 2 130 5 130
2 0 40 -33 82 -74 199 -189 197 -187 223 -184 l25 3 3 148 3 147 -26 0 -25 0
0 -125 c0 -69 -3 -125 -6 -125 -4 0 -36 29 -73 63 -184 177 -196 187 -223 187
l-28 0 0 -150z"/>
<path d="M1130 460 c0 -143 1 -150 20 -150 18 0 20 7 20 54 0 54 0 54 45 81
l45 26 93 -80 c71 -63 99 -81 122 -80 27 0 28 1 12 13 -73 56 -187 157 -187
166 0 8 25 25 130 87 48 29 52 32 28 33 -23 0 -84 -29 -148 -70 -44 -29 -132
-80 -136 -80 -2 0 -4 34 -4 75 0 68 -2 75 -20 75 -19 0 -20 -7 -20 -150z"/>
</g>
</svg>
